<svg id="Capa_1" data-name="Capa 1" xmlns="http://www.w3.org/2000/svg" viewBox="0 0 532.83 566.1"><defs><style>.cls-1{fill:#fff;}</style></defs><title>alien2</title><path class="cls-1" d="M158.62,560.37c34.15,13.31,70.19,2.66,80.49-23.78.19-.49.3-1,.47-1.51C197.9,526.58,158,506,124,475a40.93,40.93,0,0,0-8.54,13.36C105.14,514.84,124.47,547.06,158.62,560.37Z" transform="translate(-16.64 0)"/><path class="cls-1" d="M326.53,535.08c.17.5.28,1,.47,1.51,10.31,26.44,46.34,37.09,80.49,23.78s53.48-45.53,43.18-72A40.76,40.76,0,0,0,442.13,475C408.08,506,368.21,526.59,326.53,535.08Z" transform="translate(-16.64 0)"/><path class="cls-1" d="M113.37,440.77a244.07,244.07,0,0,0,24.12,24.49c28.57,25.21,64.4,45.1,104.21,53.52a196.55,196.55,0,0,0,82.71,0c39.81-8.42,75.64-28.31,104.21-53.52a245.12,245.12,0,0,0,24.12-24.49c-48.39,14.94-107.52,23.07-169.68,23.07S161.76,455.71,113.37,440.77Z" transform="translate(-16.64 0)"/><path class="cls-1" d="M70.44,406.16c4,2.09,8.32,4.11,12.75,6.07,4.1,1.82,8.33,3.58,12.73,5.28,48.12,18.55,114.19,30,187.13,30s139-11.46,187.13-30c4.41-1.7,8.64-3.46,12.74-5.28,4.43-2,8.69-4,12.74-6.07,33.76-17.44,53.81-39.15,53.81-62.7,0-19.1-13.24-37-36.24-52.38,0,.18,0,.37,0,.55a97.6,97.6,0,0,1-2.85,23.85,82.81,82.81,0,0,1-13.66,28.92c-12.22,16.56-31.15,29.64-56.84,39-36.71,13.43-86.55,19.69-156.85,19.69s-120.13-6.26-156.84-19.69c-25.69-9.4-44.62-22.48-56.84-39a81.11,81.11,0,0,1-8-13.29,82.9,82.9,0,0,1-5.66-15.63,97.62,97.62,0,0,1-2.86-23.86c0-.18,0-.37,0-.55-23,15.39-36.23,33.28-36.23,52.38C16.65,367,36.69,388.72,70.44,406.16Z" transform="translate(-16.64 0)"/><path class="cls-1" d="M72.79,315.48c18.35,57,105.48,71.34,210.27,71.34S475,372.5,493.32,315.48a72.84,72.84,0,0,0,3-14,84.81,84.81,0,0,0,.62-9.85c0-1.67-.1-3.37-.19-5.07s-.25-3.65-.44-5.49c-.35-3.23-.83-6.5-1.47-9.8s-1.44-6.76-2.4-10.18c-18.86-67.13-95.07-142.45-189-152.21v-32a41.18,41.18,0,1,0-40.8,0v32c-93.9,9.76-170.12,85.08-189,152.21-1,3.42-1.73,6.81-2.39,10.18s-1.13,6.56-1.47,9.8c-.2,1.84-.35,3.67-.44,5.49s-.2,3.4-.2,5.06a87.07,87.07,0,0,0,.62,9.85A73.77,73.77,0,0,0,72.79,315.48Zm210.27,35.1a50.32,50.32,0,1,1,50.32-50.32A50.31,50.31,0,0,1,283.06,350.58ZM402.46,225c15.68-1.62,30.41,5.68,40,18.11a51.78,51.78,0,0,1,4.62,7.24c.51,1,1,1.94,1.44,2.94a54.48,54.48,0,0,1,2.9,7.92c.15.56.28,1.15.42,1.73a54.11,54.11,0,0,1,1.33,7.41c0,.29,0,.58.05.88,2.39,27.28-15.51,51.31-40.38,53.88-25.13,2.6-47.82-17.71-50.68-45.35a53.33,53.33,0,0,1,6.24-31.32c.63-1.13,1.3-2.23,2-3.3a47.82,47.82,0,0,1,3.15-4.26c.92-1.12,1.9-2.19,2.92-3.21a44.42,44.42,0,0,1,4.6-4.08,41.25,41.25,0,0,1,4.1-2.81A42.08,42.08,0,0,1,402.46,225Zm-238.81,0A42.13,42.13,0,0,1,181,230.78a43.72,43.72,0,0,1,4.1,2.81,44.42,44.42,0,0,1,4.6,4.08q1.53,1.53,2.92,3.22a49.16,49.16,0,0,1,3.15,4.25c.7,1.07,1.37,2.17,2,3.3A53.27,53.27,0,0,1,204,279.76c-2.86,27.64-25.55,47.95-50.68,45.35-24.87-2.57-42.77-26.6-40.38-53.88,0-.29,0-.58,0-.88a56,56,0,0,1,1.34-7.41c.11-.47.22-.94.34-1.4a53.94,53.94,0,0,1,3-8.25c.46-1,.92-2,1.43-2.94a51.84,51.84,0,0,1,4.63-7.24C133.24,230.68,148,223.38,163.65,225Z" transform="translate(-16.64 0)"/></svg>