<?xml version="1.0" encoding="iso-8859-1"?>
<!-- Generator: Adobe Illustrator 16.0.0, SVG Export Plug-In . SVG Version: 6.00 Build 0)  -->
<!DOCTYPE svg PUBLIC "-//W3C//DTD SVG 1.1//EN" "http://www.w3.org/Graphics/SVG/1.1/DTD/svg11.dtd">
<svg version="1.1" id="Capa_1" xmlns="http://www.w3.org/2000/svg" xmlns:xlink="http://www.w3.org/1999/xlink" x="0px" y="0px"
	 width="566.102px" height="566.103px" viewBox="0 0 566.102 566.103" style="enable-background:new 0 0 566.102 566.103;"
	 xml:space="preserve">
<g>
	<g>
		<path d="M158.617,560.367c34.149,13.31,70.188,2.665,80.49-23.773c0.196-0.498,0.306-1.012,0.477-1.514
			c-41.681-8.499-81.555-29.111-115.603-60.037c-3.651,3.839-6.573,8.303-8.54,13.354
			C105.137,514.839,124.467,547.059,158.617,560.367z"/>
		<path d="M326.526,535.08c0.171,0.502,0.285,1.016,0.477,1.514c10.303,26.438,46.341,37.083,80.49,23.773
			c34.15-13.309,53.481-45.532,43.179-71.971c-1.966-5.051-4.888-9.515-8.539-13.354
			C408.081,505.973,368.207,526.585,326.526,535.08z"/>
		<path d="M113.374,440.771c7.295,8.544,15.361,16.765,24.117,24.488c28.572,25.21,64.403,45.097,104.211,53.518
			c13.382,2.831,27.202,4.402,41.355,4.402s27.973-1.571,41.354-4.402c39.805-8.421,75.64-28.308,104.212-53.518
			c8.756-7.728,16.821-15.944,24.117-24.488c-48.39,14.941-107.524,23.072-169.684,23.072
			C220.898,463.843,161.763,455.712,113.374,440.771z"/>
		<path d="M70.444,406.16c4.047,2.089,8.315,4.108,12.746,6.071c4.097,1.815,8.328,3.582,12.734,5.279
			c48.111,18.552,114.183,30.013,187.129,30.013s139.018-11.461,187.129-30.013c4.406-1.701,8.638-3.464,12.733-5.279
			c4.432-1.963,8.699-3.982,12.746-6.071c33.758-17.438,53.804-39.151,53.804-62.701c0-19.103-13.24-36.989-36.235-52.38
			c0,0.18,0.021,0.367,0.021,0.547c0,8.426-0.975,16.369-2.855,23.856c-1.379,5.487-3.297,10.697-5.68,15.671
			c-2.224,4.639-4.884,9.058-7.977,13.248c-12.22,16.557-31.154,29.637-56.842,39.037c-36.712,13.436-86.55,19.694-156.844,19.694
			c-70.294,0-120.132-6.259-156.843-19.694c-25.688-9.4-44.619-22.48-56.843-39.037c-3.105-4.203-5.769-8.634-7.997-13.289
			c-2.375-4.961-4.288-10.163-5.663-15.635c-1.881-7.486-2.856-15.43-2.856-23.855c0-0.18,0.02-0.367,0.02-0.547
			c-22.999,15.386-36.234,33.272-36.234,52.379C16.646,367.004,36.69,388.718,70.444,406.16z"/>
		<path d="M72.794,315.482c18.344,57.021,105.472,71.334,210.263,71.334c104.791,0,191.919-14.312,210.263-71.334
			c1.42-4.407,2.42-9.074,2.991-14.007c0.367-3.183,0.62-6.438,0.62-9.85c0-1.669-0.103-3.37-0.192-5.067
			c-0.094-1.815-0.249-3.647-0.444-5.491c-0.343-3.231-0.824-6.496-1.469-9.8c-0.657-3.366-1.437-6.756-2.396-10.176
			c-18.857-67.128-95.072-142.449-188.973-152.208v-8.229v-8.185V76.92c12.402-7.095,20.779-20.429,20.779-35.741
			c0-22.742-18.438-41.18-41.18-41.18s-41.18,18.438-41.18,41.18c0,15.312,8.376,28.646,20.78,35.741v15.553v8.185v8.229
			C168.756,118.65,92.542,193.967,73.684,261.1c-0.958,3.419-1.738,6.81-2.395,10.176c-0.645,3.301-1.126,6.564-1.469,9.8
			c-0.196,1.844-0.351,3.677-0.444,5.491c-0.09,1.697-0.192,3.399-0.192,5.068c0,3.406,0.253,6.658,0.62,9.841
			C70.371,306.404,71.375,311.071,72.794,315.482z M283.057,350.578c-27.793,0-50.319-22.529-50.319-50.318
			s22.526-50.319,50.319-50.319s50.318,22.526,50.318,50.319S310.85,350.578,283.057,350.578z M402.462,225.004
			c15.68-1.62,30.408,5.675,39.964,18.103c1.726,2.248,3.26,4.68,4.622,7.242c0.511,0.959,0.979,1.946,1.437,2.946
			c1.15,2.526,2.138,5.157,2.9,7.911c0.159,0.567,0.286,1.155,0.425,1.73c0.588,2.412,1.073,4.868,1.334,7.414
			c0.028,0.293,0.024,0.583,0.049,0.877c2.387,27.279-15.516,51.31-40.38,53.88c-25.133,2.6-47.821-17.703-50.682-45.349
			c-1.183-11.428,1.253-22.289,6.242-31.318c0.625-1.134,1.294-2.232,2-3.305c0.975-1.481,2.023-2.901,3.142-4.255
			c0.926-1.122,1.901-2.191,2.921-3.215c1.452-1.457,2.975-2.839,4.599-4.08c1.317-1.008,2.68-1.954,4.1-2.807
			C390.325,227.681,396.171,225.653,402.462,225.004z M163.652,225.004c6.292,0.649,12.138,2.677,17.328,5.777
			c1.424,0.849,2.783,1.799,4.101,2.807c1.628,1.24,3.146,2.624,4.598,4.08c1.02,1.024,1.995,2.097,2.925,3.219
			c1.118,1.351,2.167,2.771,3.142,4.251c0.706,1.073,1.371,2.17,1.999,3.305c4.99,9.029,7.422,19.894,6.243,31.318
			c-2.86,27.642-25.549,47.948-50.682,45.349c-24.864-2.57-42.771-26.602-40.38-53.88c0.024-0.294,0.021-0.583,0.049-0.877
			c0.265-2.546,0.747-5.006,1.334-7.413c0.114-0.465,0.216-0.935,0.343-1.396c0.779-2.873,1.787-5.622,2.987-8.25
			c0.457-1,0.922-1.987,1.436-2.946c1.363-2.558,2.897-4.994,4.623-7.242C133.244,230.679,147.972,223.384,163.652,225.004z"/>
	</g>
</g>
<g>
</g>
<g>
</g>
<g>
</g>
<g>
</g>
<g>
</g>
<g>
</g>
<g>
</g>
<g>
</g>
<g>
</g>
<g>
</g>
<g>
</g>
<g>
</g>
<g>
</g>
<g>
</g>
<g>
</g>
</svg>
