<svg id="visual" viewBox="0 0 900 600" width="900" height="600" xmlns="http://www.w3.org/2000/svg" xmlns:xlink="http://www.w3.org/1999/xlink" version="1.1"><rect x="0" y="0" width="900" height="600" fill="#001220"></rect><defs><linearGradient id="grad1_0" x1="33.3%" y1="100%" x2="100%" y2="0%"><stop offset="20%" stop-color="#fbae3c" stop-opacity="1"></stop><stop offset="80%" stop-color="#fbae3c" stop-opacity="1"></stop></linearGradient></defs><defs><linearGradient id="grad1_1" x1="33.3%" y1="100%" x2="100%" y2="0%"><stop offset="20%" stop-color="#fbae3c" stop-opacity="1"></stop><stop offset="80%" stop-color="#e1685e" stop-opacity="1"></stop></linearGradient></defs><defs><linearGradient id="grad1_2" x1="33.3%" y1="100%" x2="100%" y2="0%"><stop offset="20%" stop-color="#96446e" stop-opacity="1"></stop><stop offset="80%" stop-color="#e1685e" stop-opacity="1"></stop></linearGradient></defs><defs><linearGradient id="grad1_3" x1="33.3%" y1="100%" x2="100%" y2="0%"><stop offset="20%" stop-color="#96446e" stop-opacity="1"></stop><stop offset="80%" stop-color="#3d3056" stop-opacity="1"></stop></linearGradient></defs><defs><linearGradient id="grad1_4" x1="33.3%" y1="100%" x2="100%" y2="0%"><stop offset="20%" stop-color="#001220" stop-opacity="1"></stop><stop offset="80%" stop-color="#3d3056" stop-opacity="1"></stop></linearGradient></defs><defs><linearGradient id="grad2_0" x1="0%" y1="100%" x2="66.7%" y2="0%"><stop offset="20%" stop-color="#fbae3c" stop-opacity="1"></stop><stop offset="80%" stop-color="#fbae3c" stop-opacity="1"></stop></linearGradient></defs><defs><linearGradient id="grad2_1" x1="0%" y1="100%" x2="66.7%" y2="0%"><stop offset="20%" stop-color="#e1685e" stop-opacity="1"></stop><stop offset="80%" stop-color="#fbae3c" stop-opacity="1"></stop></linearGradient></defs><defs><linearGradient id="grad2_2" x1="0%" y1="100%" x2="66.7%" y2="0%"><stop offset="20%" stop-color="#e1685e" stop-opacity="1"></stop><stop offset="80%" stop-color="#96446e" stop-opacity="1"></stop></linearGradient></defs><defs><linearGradient id="grad2_3" x1="0%" y1="100%" x2="66.7%" y2="0%"><stop offset="20%" stop-color="#3d3056" stop-opacity="1"></stop><stop offset="80%" stop-color="#96446e" stop-opacity="1"></stop></linearGradient></defs><defs><linearGradient id="grad2_4" x1="0%" y1="100%" x2="66.7%" y2="0%"><stop offset="20%" stop-color="#3d3056" stop-opacity="1"></stop><stop offset="80%" stop-color="#001220" stop-opacity="1"></stop></linearGradient></defs><g transform="translate(900, 600)"><path d="M-459.7 0C-436.3 -18.3 -412.9 -36.5 -408.8 -58.8C-404.7 -81 -419.8 -107.2 -396.3 -116.4C-372.8 -125.5 -310.6 -117.5 -313.8 -143.3C-317 -169.1 -385.5 -228.7 -386.7 -248.5C-387.9 -268.4 -321.8 -248.5 -291 -252.1C-260.1 -255.7 -264.5 -282.7 -251.5 -290.2C-238.5 -297.7 -208.2 -285.7 -194.1 -302C-180 -318.3 -182.2 -362.8 -166.2 -363.9C-150.1 -364.9 -115.7 -322.4 -96.9 -330.1C-78.1 -337.8 -74.8 -395.7 -61.2 -425.6C-47.6 -455.6 -23.8 -457.7 0 -459.7L0 0Z" fill="#18223c"></path><path d="M-367.8 0C-349.1 -14.6 -330.3 -29.2 -327 -47C-323.7 -64.8 -335.8 -85.8 -317 -93.1C-298.2 -100.4 -248.5 -94 -251.1 -114.7C-253.6 -135.3 -308.4 -182.9 -309.4 -198.8C-310.3 -214.7 -257.5 -198.8 -232.8 -201.7C-208.1 -204.6 -211.6 -226.2 -201.2 -232.2C-190.8 -238.2 -166.5 -228.6 -155.3 -241.6C-144 -254.6 -145.8 -290.3 -132.9 -291.1C-120.1 -291.9 -92.6 -257.9 -77.5 -264.1C-62.5 -270.2 -59.8 -316.5 -49 -340.5C-38.1 -364.5 -19.1 -366.1 0 -367.8L0 0Z" fill="#683a67"></path><path d="M-275.8 0C-261.8 -11 -247.8 -21.9 -245.3 -35.3C-242.8 -48.6 -251.9 -64.3 -237.8 -69.8C-223.7 -75.3 -186.4 -70.5 -188.3 -86C-190.2 -101.5 -231.3 -137.2 -232 -149.1C-232.8 -161 -193.1 -149.1 -174.6 -151.3C-156.1 -153.4 -158.7 -169.6 -150.9 -174.1C-143.1 -178.6 -124.9 -171.4 -116.5 -181.2C-108 -191 -109.3 -217.7 -99.7 -218.3C-90.1 -218.9 -69.4 -193.4 -58.1 -198C-46.8 -202.7 -44.9 -237.4 -36.7 -255.4C-28.6 -273.4 -14.3 -274.6 0 -275.8L0 0Z" fill="#c0526a"></path><path d="M-183.9 0C-174.5 -7.3 -165.2 -14.6 -163.5 -23.5C-161.9 -32.4 -167.9 -42.9 -158.5 -46.5C-149.1 -50.2 -124.3 -47 -125.5 -57.3C-126.8 -67.6 -154.2 -91.5 -154.7 -99.4C-155.2 -107.4 -128.7 -99.4 -116.4 -100.8C-104 -102.3 -105.8 -113.1 -100.6 -116.1C-95.4 -119.1 -83.3 -114.3 -77.6 -120.8C-72 -127.3 -72.9 -145.1 -66.5 -145.5C-60 -145.9 -46.3 -128.9 -38.8 -132C-31.2 -135.1 -29.9 -158.3 -24.5 -170.2C-19.1 -182.2 -9.5 -183.1 0 -183.9L0 0Z" fill="#f6884d"></path><path d="M-91.9 0C-87.3 -3.7 -82.6 -7.3 -81.8 -11.8C-80.9 -16.2 -84 -21.4 -79.3 -23.3C-74.6 -25.1 -62.1 -23.5 -62.8 -28.7C-63.4 -33.8 -77.1 -45.7 -77.3 -49.7C-77.6 -53.7 -64.4 -49.7 -58.2 -50.4C-52 -51.1 -52.9 -56.5 -50.3 -58C-47.7 -59.5 -41.6 -57.1 -38.8 -60.4C-36 -63.7 -36.4 -72.6 -33.2 -72.8C-30 -73 -23.1 -64.5 -19.4 -66C-15.6 -67.6 -15 -79.1 -12.2 -85.1C-9.5 -91.1 -4.8 -91.5 0 -91.9L0 0Z" fill="#fbae3c"></path></g><g transform="translate(0, 0)"><path d="M459.7 0C471.1 25.8 482.5 51.6 455 65.4C427.6 79.2 361.3 81 361.7 106.2C362.1 131.4 429.2 180 415.7 189.8C402.2 199.7 308.1 170.8 289.4 186C270.6 201.2 327.2 260.4 341.6 296C356 331.6 328.2 343.6 298.6 344.6C269.1 345.6 237.8 335.7 214.1 333.1C190.4 330.6 174.3 335.5 160.4 351.1C146.4 366.8 134.7 393.2 117.8 401.1C100.8 408.9 78.7 398.2 58.2 404.8C37.7 411.5 18.9 435.6 0 459.7L0 0Z" fill="#18223c"></path><path d="M367.8 0C376.9 20.6 386 41.3 364 52.3C342.1 63.4 289.1 64.8 289.4 85C289.7 105.1 343.4 144 332.6 151.9C321.8 159.8 246.5 136.6 231.5 148.8C216.5 160.9 261.8 208.3 273.3 236.8C284.8 265.3 262.5 274.9 238.9 275.7C215.3 276.5 190.2 268.5 171.3 266.5C152.3 264.5 139.4 268.4 128.3 280.9C117.1 293.4 107.8 314.6 94.2 320.9C80.7 327.1 63 318.5 46.6 323.9C30.2 329.2 15.1 348.5 0 367.8L0 0Z" fill="#683a67"></path><path d="M275.8 0C282.7 15.5 289.5 31 273 39.3C256.6 47.5 216.8 48.6 217 63.7C217.3 78.8 257.5 108 249.4 113.9C241.3 119.8 184.9 102.5 173.6 111.6C162.4 120.7 196.3 156.2 205 177.6C213.6 199 196.9 206.2 179.2 206.8C161.4 207.4 142.7 201.4 128.5 199.9C114.2 198.4 104.6 201.3 96.2 210.7C87.9 220.1 80.8 235.9 70.7 240.6C60.5 245.3 47.2 238.9 34.9 242.9C22.6 246.9 11.3 261.4 0 275.8L0 0Z" fill="#c0526a"></path><path d="M183.9 0C188.4 10.3 193 20.6 182 26.2C171 31.7 144.5 32.4 144.7 42.5C144.9 52.6 171.7 72 166.3 75.9C160.9 79.9 123.3 68.3 115.8 74.4C108.3 80.5 130.9 104.2 136.6 118.4C142.4 132.6 131.3 137.4 119.4 137.8C107.6 138.3 95.1 134.3 85.6 133.3C76.2 132.2 69.7 134.2 64.1 140.4C58.6 146.7 53.9 157.3 47.1 160.4C40.3 163.6 31.5 159.3 23.3 161.9C15.1 164.6 7.5 174.2 0 183.9L0 0Z" fill="#f6884d"></path><path d="M91.9 0C94.2 5.2 96.5 10.3 91 13.1C85.5 15.8 72.3 16.2 72.3 21.2C72.4 26.3 85.8 36 83.1 38C80.4 39.9 61.6 34.2 57.9 37.2C54.1 40.2 65.4 52.1 68.3 59.2C71.2 66.3 65.6 68.7 59.7 68.9C53.8 69.1 47.6 67.1 42.8 66.6C38.1 66.1 34.9 67.1 32.1 70.2C29.3 73.4 26.9 78.6 23.6 80.2C20.2 81.8 15.7 79.6 11.6 81C7.5 82.3 3.8 87.1 0 91.9L0 0Z" fill="#fbae3c"></path></g></svg>