<svg id="visual" viewBox="0 0 900 600" width="900" height="600" xmlns="http://www.w3.org/2000/svg" xmlns:xlink="http://www.w3.org/1999/xlink" version="1.1"><rect x="0" y="0" width="900" height="600" fill="#090a0f"></rect><defs><linearGradient id="grad1_0" x1="33.3%" y1="100%" x2="100%" y2="0%"><stop offset="20%" stop-color="#2a03bb" stop-opacity="1"></stop><stop offset="80%" stop-color="#2a03bb" stop-opacity="1"></stop></linearGradient></defs><defs><linearGradient id="grad1_1" x1="33.3%" y1="100%" x2="100%" y2="0%"><stop offset="20%" stop-color="#2a03bb" stop-opacity="1"></stop><stop offset="80%" stop-color="#001b93" stop-opacity="1"></stop></linearGradient></defs><defs><linearGradient id="grad1_2" x1="33.3%" y1="100%" x2="100%" y2="0%"><stop offset="20%" stop-color="#001c67" stop-opacity="1"></stop><stop offset="80%" stop-color="#001b93" stop-opacity="1"></stop></linearGradient></defs><defs><linearGradient id="grad1_3" x1="33.3%" y1="100%" x2="100%" y2="0%"><stop offset="20%" stop-color="#001c67" stop-opacity="1"></stop><stop offset="80%" stop-color="#03163b" stop-opacity="1"></stop></linearGradient></defs><defs><linearGradient id="grad1_4" x1="33.3%" y1="100%" x2="100%" y2="0%"><stop offset="20%" stop-color="#090a0f" stop-opacity="1"></stop><stop offset="80%" stop-color="#03163b" stop-opacity="1"></stop></linearGradient></defs><defs><linearGradient id="grad2_0" x1="0%" y1="100%" x2="66.7%" y2="0%"><stop offset="20%" stop-color="#2a03bb" stop-opacity="1"></stop><stop offset="80%" stop-color="#2a03bb" stop-opacity="1"></stop></linearGradient></defs><defs><linearGradient id="grad2_1" x1="0%" y1="100%" x2="66.7%" y2="0%"><stop offset="20%" stop-color="#001b93" stop-opacity="1"></stop><stop offset="80%" stop-color="#2a03bb" stop-opacity="1"></stop></linearGradient></defs><defs><linearGradient id="grad2_2" x1="0%" y1="100%" x2="66.7%" y2="0%"><stop offset="20%" stop-color="#001b93" stop-opacity="1"></stop><stop offset="80%" stop-color="#001c67" stop-opacity="1"></stop></linearGradient></defs><defs><linearGradient id="grad2_3" x1="0%" y1="100%" x2="66.7%" y2="0%"><stop offset="20%" stop-color="#03163b" stop-opacity="1"></stop><stop offset="80%" stop-color="#001c67" stop-opacity="1"></stop></linearGradient></defs><defs><linearGradient id="grad2_4" x1="0%" y1="100%" x2="66.7%" y2="0%"><stop offset="20%" stop-color="#03163b" stop-opacity="1"></stop><stop offset="80%" stop-color="#090a0f" stop-opacity="1"></stop></linearGradient></defs><g transform="translate(900, 600)"><path d="M-432.7 0C-429.8 -20 -426.9 -40.1 -425.6 -61.2C-424.3 -82.3 -424.6 -104.6 -410.7 -120.6C-396.7 -136.6 -368.6 -146.4 -355.7 -162.4C-342.7 -178.5 -344.9 -200.9 -335.7 -215.7C-326.5 -230.5 -305.9 -237.8 -298.5 -258.7C-291.1 -279.5 -296.9 -314 -283.3 -327C-269.8 -340 -236.8 -331.5 -214.1 -333.1C-191.4 -334.7 -178.9 -346.4 -164.5 -360.2C-150.1 -374 -133.9 -390 -115.2 -392.4C-96.5 -394.8 -75.4 -383.6 -55.8 -388C-36.2 -392.4 -18.1 -412.6 0 -432.7L0 0Z" fill="#0b1125"></path><path d="M-346.1 0C-343.8 -16 -341.5 -32 -340.5 -49C-339.5 -65.9 -339.7 -83.7 -328.5 -96.5C-317.4 -109.3 -294.9 -117.1 -284.5 -129.9C-274.2 -142.8 -275.9 -160.7 -268.5 -172.6C-261.2 -184.4 -244.7 -190.2 -238.8 -206.9C-232.9 -223.6 -237.5 -251.2 -226.7 -261.6C-215.8 -272 -189.5 -265.2 -171.3 -266.5C-153.1 -267.8 -143.1 -277.1 -131.6 -288.2C-120.1 -299.2 -107.1 -312 -92.2 -313.9C-77.2 -315.9 -60.3 -306.9 -44.6 -310.4C-28.9 -314 -14.5 -330 0 -346.1L0 0Z" fill="#001951"></path><path d="M-259.6 0C-257.9 -12 -256.2 -24 -255.4 -36.7C-254.6 -49.4 -254.8 -62.7 -246.4 -72.3C-238 -82 -221.2 -87.8 -213.4 -97.5C-205.6 -107.1 -206.9 -120.5 -201.4 -129.4C-195.9 -138.3 -183.5 -142.7 -179.1 -155.2C-174.7 -167.7 -178.1 -188.4 -170 -196.2C-161.9 -204 -142.1 -198.9 -128.5 -199.9C-114.8 -200.8 -107.3 -207.8 -98.7 -216.1C-90.1 -224.4 -80.3 -234 -69.1 -235.5C-57.9 -236.9 -45.2 -230.1 -33.5 -232.8C-21.7 -235.5 -10.9 -247.5 0 -259.6L0 0Z" fill="#001d7d"></path><path d="M-173.1 0C-171.9 -8 -170.8 -16 -170.2 -24.5C-169.7 -32.9 -169.8 -41.8 -164.3 -48.2C-158.7 -54.6 -147.5 -58.5 -142.3 -65C-137.1 -71.4 -137.9 -80.4 -134.3 -86.3C-130.6 -92.2 -122.4 -95.1 -119.4 -103.5C-116.5 -111.8 -118.8 -125.6 -113.3 -130.8C-107.9 -136 -94.7 -132.6 -85.6 -133.3C-76.5 -133.9 -71.5 -138.6 -65.8 -144.1C-60.1 -149.6 -53.6 -156 -46.1 -157C-38.6 -157.9 -30.2 -153.4 -22.3 -155.2C-14.5 -157 -7.2 -165 0 -173.1L0 0Z" fill="#0215a7"></path><path d="M-86.5 0C-86 -4 -85.4 -8 -85.1 -12.2C-84.9 -16.5 -84.9 -20.9 -82.1 -24.1C-79.3 -27.3 -73.7 -29.3 -71.1 -32.5C-68.5 -35.7 -69 -40.2 -67.1 -43.1C-65.3 -46.1 -61.2 -47.6 -59.7 -51.7C-58.2 -55.9 -59.4 -62.8 -56.7 -65.4C-54 -68 -47.4 -66.3 -42.8 -66.6C-38.3 -66.9 -35.8 -69.3 -32.9 -72C-30 -74.8 -26.8 -78 -23 -78.5C-19.3 -79 -15.1 -76.7 -11.2 -77.6C-7.2 -78.5 -3.6 -82.5 0 -86.5L0 0Z" fill="#2a03bb"></path></g><g transform="translate(0, 0)"><path d="M432.7 0C434 21.3 435.3 42.6 424.6 61.1C414 79.5 391.4 95.1 378 111C364.7 126.9 360.7 143.3 362.9 165.8C365.2 188.2 373.8 216.9 364 233.9C354.2 251 325.9 256.5 305.3 264.6C284.7 272.6 271.8 283.3 263.3 303.8C254.7 324.3 250.5 354.6 233 362.6C215.5 370.5 184.7 356.1 163.3 357.5C141.8 358.9 129.6 376.1 113.8 387.6C98.1 399.2 78.8 405.2 59.2 411.8C39.6 418.3 19.8 425.5 0 432.7L0 0Z" fill="#0b1125"></path><path d="M346.1 0C347.2 17 348.2 34.1 339.7 48.8C331.2 63.6 313.1 76 302.4 88.8C291.8 101.6 288.5 114.6 290.4 132.6C292.2 150.6 299 173.5 291.2 187.1C283.3 200.8 260.7 205.2 244.3 211.7C227.8 218.1 217.5 226.7 210.6 243C203.8 259.4 200.4 283.7 186.4 290.1C172.4 296.4 147.8 284.9 130.6 286C113.4 287.1 103.7 300.8 91.1 310.1C78.5 319.4 63 324.2 47.4 329.4C31.7 334.7 15.9 340.4 0 346.1L0 0Z" fill="#001951"></path><path d="M259.6 0C260.4 12.8 261.2 25.6 254.8 36.6C248.4 47.7 234.8 57 226.8 66.6C218.8 76.2 216.4 86 217.8 99.5C219.1 112.9 224.3 130.1 218.4 140.4C212.5 150.6 195.5 153.9 183.2 158.7C170.8 163.6 163.1 170 158 182.3C152.8 194.6 150.3 212.8 139.8 217.5C129.3 222.3 110.8 213.7 98 214.5C85.1 215.3 77.7 225.6 68.3 232.6C58.8 239.5 47.3 243.1 35.5 247.1C23.8 251 11.9 255.3 0 259.6L0 0Z" fill="#001d7d"></path><path d="M173.1 0C173.6 8.5 174.1 17 169.9 24.4C165.6 31.8 156.5 38 151.2 44.4C145.9 50.8 144.3 57.3 145.2 66.3C146.1 75.3 149.5 86.7 145.6 93.6C141.7 100.4 130.4 102.6 122.1 105.8C113.9 109.1 108.7 113.3 105.3 121.5C101.9 129.7 100.2 141.9 93.2 145C86.2 148.2 73.9 142.4 65.3 143C56.7 143.5 51.8 150.4 45.5 155.1C39.2 159.7 31.5 162.1 23.7 164.7C15.9 167.3 7.9 170.2 0 173.1L0 0Z" fill="#0215a7"></path><path d="M86.5 0C86.8 4.3 87.1 8.5 84.9 12.2C82.8 15.9 78.3 19 75.6 22.2C72.9 25.4 72.1 28.7 72.6 33.2C73 37.6 74.8 43.4 72.8 46.8C70.8 50.2 65.2 51.3 61.1 52.9C56.9 54.5 54.4 56.7 52.7 60.8C50.9 64.9 50.1 70.9 46.6 72.5C43.1 74.1 36.9 71.2 32.7 71.5C28.4 71.8 25.9 75.2 22.8 77.5C19.6 79.8 15.8 81 11.8 82.4C7.9 83.7 4 85.1 0 86.5L0 0Z" fill="#2a03bb"></path></g></svg>