<svg height="451pt" viewBox="-61 0 451 451.334" width="451pt" xmlns="http://www.w3.org/2000/svg"><path d="m319.738281 240.328125-21.570312-133.324219h-267.984375l-21.546875 133.183594-.039063.140625c-2.941406 11.070313-4.429687 22.457031-4.429687 33.890625v.003906c0 28.046875 23.464843 50.78125 52.410156 50.78125h215.175781c28.945313 0 52.414063-22.734375 52.414063-50.78125v-.003906c0-11.433594-1.488281-22.820312-4.429688-33.890625zm0 0" fill="#4671c6"/><path d="m271.753906 329.003906h-215.175781c-31.105469 0-56.410156-24.574218-56.410156-54.78125 0-11.757812 1.527343-23.492187 4.546875-34.871094l21.519531-132.988281c.3125-1.9375 1.984375-3.359375 3.945313-3.359375h267.988281c1.960937 0 3.632812 1.421875 3.945312 3.359375l21.542969 133.132813c2.996094 11.332031 4.511719 23.015625 4.511719 34.722656 0 30.207031-25.308594 54.785156-56.414063 54.785156zm-238.167968-218-21.003907 129.820313c-.019531.128906-.050781.261719-.082031.386719-2.890625 10.871093-4.332031 21.925781-4.332031 33.007812 0 25.796875 21.71875 46.785156 48.410156 46.785156h215.175781c26.695313 0 48.414063-20.988281 48.414063-46.78125 0-11.082031-1.445313-22.140625-4.296875-32.867187-.03125-.125-.058594-.253907-.082032-.386719l-21.027343-129.964844zm0 0" fill="#3762cc"/><path d="m110.164062 347.679688h-.074218l13.707031 36.105468h80.738281l13.703125-36.097656h-.089843c.234374-.941406.390624-1.894531.390624-2.875v-33.328125c-16.09375 8.238281-34.328124 12.894531-53.65625 12.894531-19.910156 0-38.648437-4.953125-55.097656-13.660156v34.160156c.003906.953125.15625 1.886719.378906 2.800782zm0 0" fill="#f9cfcf"/><path d="m298.070312 426.746094c-.019531-.441406-.058593-.878906-.082031-1.316406-.054687-.855469-.109375-1.703126-.1875-2.546876-.050781-.527343-.113281-1.046874-.167969-1.574218-.085937-.746094-.175781-1.488282-.277343-2.230469-.078125-.5625-.164063-1.125-.253907-1.6875-.109374-.683594-.230468-1.363281-.355468-2.039063-.109375-.589843-.222656-1.179687-.34375-1.769531-.128906-.621093-.273438-1.238281-.414063-1.855469-.148437-.625-.289062-1.25-.449219-1.871093-.128906-.503907-.273437-1-.414062-1.5-.753906-2.71875-1.640625-5.382813-2.652344-7.980469-.085937-.21875-.167968-.441406-.253906-.660156-.34375-.859375-.710938-1.707032-1.082031-2.554688-.105469-.234375-.207031-.472656-.3125-.710937-.390625-.859375-.792969-1.710938-1.210938-2.554688-.09375-.1875-.183593-.375-.277343-.566406-.449219-.890625-.910157-1.777344-1.390626-2.648437-.042968-.078126-.085937-.15625-.128906-.234376-13.671875-24.742187-39.546875-41.804687-69.519531-43.023437l-.207031.261719h.15625l-9.785156 25.777344c-2.359376 6.214843-8.3125 10.324218-14.957032 10.324218h-58.664062c-6.644532 0-12.597656-4.109375-14.957032-10.324218l-8.496093-22.382813c-.59375-1.0625-1.035157-2.207031-1.289063-3.398437-23.613281 2.078124-44.390625 14.011718-58.214844 31.65625h-.011718c-.050782.0625-.101563.132812-.152344.199218-.453125.582032-.886719 1.171875-1.324219 1.761719-.269531.367187-.542969.734375-.804687 1.101563-.414063.582031-.816406 1.167968-1.21875 1.761718-.265625.398438-.53125.796875-.792969 1.203125-.382813.585938-.753906 1.175781-1.121094 1.769531-.261719.425782-.515625.851563-.769531 1.28125-.347656.59375-.695312 1.1875-1.027344 1.785157-.253906.453125-.496094.910156-.738281 1.367187-.316406.59375-.636719 1.191406-.9375 1.792969-.246094.484375-.472656.976563-.707031 1.464844-.28125.589843-.570313 1.179687-.839844 1.777343-.261719.582032-.503906 1.175782-.75 1.765626-.398438.941406-.777344 1.894531-1.140625 2.851562-.246094.65625-.5 1.308594-.730469 1.972656-.183594.523438-.347656 1.054688-.519531 1.582032-.210937.640624-.421875 1.277343-.617187 1.925781-.160157.535156-.304688 1.074219-.453126 1.613281-.183593.652344-.363281 1.304688-.527343 1.964844-.136719.539062-.261719 1.082031-.386719 1.628906-.15625.671875-.304688 1.347656-.445312 2.027344-.109376.535156-.210938 1.078125-.3125 1.617187-.128907.703125-.246094 1.410157-.359376 2.117188-.082031.527343-.164062 1.054687-.234374 1.585937-.105469.75-.191407 1.5-.273438 2.257813-.054688.5-.113281.996093-.160156 1.496093-.078125.839844-.128906 1.6875-.183594 2.53125-.023438.425782-.0625.847657-.082031 1.273438-.0625 1.277344-.09375 2.558594-.09375 3.847656v16.675782h264v-16.675782c0-1.3125-.035157-2.617187-.097657-3.914062zm0 0" fill="#a4c9ff"/><path d="m298.070312 426.746094c-.019531-.441406-.058593-.878906-.082031-1.316406-.054687-.855469-.109375-1.703126-.1875-2.546876-.050781-.527343-.113281-1.046874-.167969-1.574218-.085937-.746094-.175781-1.488282-.277343-2.230469-.078125-.5625-.164063-1.125-.253907-1.6875-.109374-.683594-.230468-1.363281-.355468-2.039063-.109375-.589843-.222656-1.179687-.34375-1.769531-.128906-.621093-.273438-1.238281-.414063-1.855469-.148437-.625-.289062-1.25-.449219-1.871093-.128906-.503907-.273437-1-.414062-1.5-.753906-2.71875-1.640625-5.382813-2.652344-7.980469-.085937-.21875-.167968-.441406-.253906-.660156-.34375-.859375-.710938-1.707032-1.082031-2.554688-.105469-.234375-.207031-.472656-.3125-.710937-.390625-.859375-.792969-1.710938-1.210938-2.554688-.09375-.1875-.183593-.375-.277343-.566406-.449219-.890625-.910157-1.777344-1.390626-2.648437-.042968-.078126-.085937-.15625-.128906-.234376-13.671875-24.742187-39.546875-41.804687-69.519531-43.023437l-.203125.257813h.152344l-37.824219 99.652343h117.746094v-16.675781c0-1.308594-.035157-2.613281-.097657-3.910156zm0 0" fill="#e0ebfc"/><path d="m110.089844 347.679688c-23.613282 2.078124-44.390625 14.011718-58.214844 31.65625h-.011719c-.050781.0625-.097656.132812-.148437.199218-.453125.582032-.890625 1.171875-1.324219 1.761719-.273437.367187-.542969.734375-.808594 1.101563-.414062.582031-.816406 1.167968-1.214843 1.761718-.269532.398438-.535157.796875-.796876 1.203125-.378906.585938-.753906 1.175781-1.121093 1.769531-.261719.425782-.515625.851563-.769531 1.28125-.347657.59375-.691407 1.1875-1.027344 1.785157-.25.453125-.492188.910156-.738282 1.367187-.316406.59375-.636718 1.191406-.9375 1.792969-.242187.484375-.472656.976563-.707031 1.464844-.28125.589843-.570312 1.179687-.835937 1.777343-.261719.582032-.503906 1.175782-.753906 1.765626-.394532.941406-.777344 1.894531-1.140626 2.851562-.246093.65625-.5 1.308594-.730468 1.972656-.179688.523438-.347656 1.054688-.519532 1.582032-.210937.640624-.421874 1.277343-.613281 1.925781-.160156.535156-.308593 1.074219-.457031 1.613281-.183594.652344-.359375 1.304688-.527344 1.964844-.132812.539062-.261718 1.082031-.386718 1.628906-.152344.671875-.304688 1.347656-.441407 2.027344-.109375.535156-.214843 1.078125-.3125 1.617187-.128906.703125-.246093 1.410157-.359375 2.117188-.082031.527343-.167968 1.054687-.238281 1.585937-.101563.75-.1875 1.5-.273437 2.257813-.050782.5-.113282.996093-.160157 1.496093-.074219.839844-.128906 1.6875-.179687 2.53125-.027344.425782-.0625.847657-.082032 1.273438-.058593 1.277344-.089843 2.558594-.089843 3.847656v16.675782h113.75l-36.535157-96.257813c-.597656-1.0625-1.035156-2.207031-1.292968-3.398437zm0 0" fill="#e0ebfc"/><path d="m212.15625 407.835938h17.167969c3.085937 0 5.894531-1.773438 7.222656-4.554688l21.042969-44.089844c-7.183594-4.308594-15.058594-7.582031-23.433594-9.574218l-15.914062-1.933594-37.824219 99.652344h30.703125l12.78125-18.183594c2.679687-3.8125 1.546875-9.101563-2.460938-11.480469l-10.304687-6.121094c-1.746094-1.035156-1.011719-3.714843 1.019531-3.714843zm0 0" fill="#e0ebfc"/><path d="m111.382812 351.078125c-.597656-1.0625-1.035156-2.203125-1.292968-3.394531v-.003906l-5.023438.609374c-12.21875 1.828126-23.558594 6.320313-33.433594 12.851563l20.109376 42.140625c1.328124 2.78125 4.136718 4.554688 7.222656 4.554688h17.167968c2.03125 0 2.769532 2.679687 1.019532 3.71875l-10.304688 6.121093c-4.007812 2.378907-5.140625 7.664063-2.460937 11.476563l12.78125 18.183594h30.75zm0 0" fill="#e0ebfc"/><path d="m282.914062 161.488281c-.253906 0-.496093.035157-.746093.039063v-11.148438c0-65.171875-52.832031-118-118-118-65.171875 0-118 52.828125-118 118v11.148438c-.25-.003906-.496094-.039063-.746094-.039063-19.882813 0-36 16.121094-36 36 0 19.882813 16.117187 36 36 36 1.304687 0 2.589844-.078125 3.859375-.210937 12.179688 52.199218 58.972656 91.101562 114.886719 91.101562 55.910156 0 102.703125-38.902344 114.882812-91.101562 1.269531.132812 2.554688.210937 3.863281.210937 19.882813 0 36-16.117187 36-36 0-19.882812-16.117187-36-36-36zm0 0" fill="#f9cfcf"/><g fill="#3762cc"><path d="m164.167969 328.378906c-55.863281 0-103.890625-37.207031-117.964844-90.898437-22.457031.445312-40.78125-17.675781-40.78125-39.992188 0-20.957031 16.207031-38.207031 36.746094-39.867187v-7.242188c0-67.273437 54.726562-122 122-122 67.269531 0 122 54.726563 122 122v7.242188c20.539062 1.660156 36.746093 18.910156 36.746093 39.867187 0 22.316407-18.308593 40.457031-40.785156 39.992188-14.070312 53.691406-62.101562 90.898437-117.960937 90.898437zm-114.882813-99.101562c1.839844 0 3.46875 1.265625 3.894532 3.089844 12.085937 51.820312 57.726562 88.011718 110.988281 88.011718s98.902343-36.191406 110.988281-88.011718c.457031-1.964844 2.304688-3.296876 4.316406-3.070313 1.207032.128906 2.335938.191406 3.441406.191406 17.644532 0 32-14.355469 32-32 0-17.636719-14.34375-31.992187-31.980468-32-.320313.023438-.5.035157-.6875.039063-1.078125.03125-2.109375-.390625-2.878906-1.144532-.765626-.753906-1.199219-1.78125-1.199219-2.855468v-11.152344c0-62.859375-51.140625-114-114-114s-114 51.140625-114 114v11.152344c0 1.074218-.429688 2.101562-1.199219 2.855468-.769531.75-1.828125 1.179688-2.878906 1.144532-.183594-.003906-.367188-.015625-.550782-.03125-.007812 0-.011718 0-.015624 0-17.753907 0-32.097657 14.355468-32.097657 31.992187 0 17.644531 14.355469 32 32 32 1.105469 0 2.230469-.058593 3.441407-.1875.136718-.019531.28125-.023437.417968-.023437zm0 0"/><path d="m165.464844 266.902344c-16.894532 0-30.640625-12.414063-30.640625-27.679688 0-2.207031 1.792969-4 4-4s4 1.792969 4 4c0 10.851563 10.15625 19.679688 22.640625 19.679688s22.640625-8.828125 22.640625-19.679688c0-2.207031 1.792969-4 4-4s4 1.792969 4 4c0 15.265625-13.746094 27.679688-30.640625 27.679688zm0 0"/><path d="m298.167969 451.335938h-264c-2.207031 0-4-1.792969-4-4v-16.675782c0-44.25 32.238281-80.777344 75.621093-86.53125v-33.132812c0-1.402344.738282-2.703125 1.9375-3.425782 1.203126-.722656 2.695313-.761718 3.9375-.105468 16.300782 8.632812 34.703126 13.195312 53.222657 13.195312 18.253906 0 35.695312-4.191406 51.835937-12.453125 1.242188-.636719 2.71875-.578125 3.910156.148438 1.1875.722656 1.914063 2.015625 1.914063 3.410156v31.921875c44.964844 3.902344 79.621094 41.34375 79.621094 86.972656v16.675782c0 2.207031-1.792969 4-4 4zm-260-8h256v-12.675782c0-42.695312-33.402344-77.503906-76.035157-79.242187-1.109374-.046875-2.144531-.546875-2.867187-1.382813-.722656-.839844-1.066406-1.9375-.949219-3.042968l.230469-2.113282v-26.761718c-15.628906 7-32.300781 10.539062-49.660156 10.539062-17.625 0-35.15625-3.863281-51.097657-11.214844v27.71875c0 .476563.070313 1.011719.214844 1.679688.242188 1.121094-.011718 2.289062-.691406 3.210937-.679688.925781-1.726562 1.507813-2.871094 1.609375-41.203125 3.632813-72.273437 37.59375-72.273437 79zm0 0"/><path d="m211.121094 451.335938h-30.703125c-1.316407 0-2.546875-.648438-3.292969-1.730469s-.914062-2.460938-.449219-3.691407l37.824219-99.648437c.652344-1.722656 2.394531-2.773437 4.222656-2.550781l15.914063 1.933594c.148437.015624.296875.042968.441406.078124 8.613281 2.046876 16.875 5.421876 24.566406 10.035157 1.769531 1.058593 2.441407 3.289062 1.550781 5.152343l-21.039062 44.089844c-1.984375 4.148438-6.234375 6.832032-10.832031 6.832032h-9.882813l4.042969 2.398437c2.863281 1.703125 4.90625 4.546875 5.605469 7.804687.699218 3.257813 0 6.691407-1.914063 9.414063l-12.78125 18.183594c-.75 1.0625-1.96875 1.699219-3.273437 1.699219zm-24.90625-8h22.832031l11.585937-16.484376c.644532-.921874.875-2.035156.636719-3.136718-.238281-1.101563-.902343-2.027344-1.871093-2.601563l-10.304688-6.121093c-2.355469-1.394532-3.449219-4.109376-2.722656-6.746094.726562-2.636719 3.050781-4.410156 5.785156-4.410156h17.167969c1.53125 0 2.949219-.894532 3.609375-2.28125l19.441406-40.734376c-6.007812-3.242187-12.359375-5.679687-18.929688-7.261718l-12.578124-1.527344zm0 0"/><path d="m147.917969 451.335938h-30.75c-1.304688 0-2.523438-.636719-3.273438-1.703126l-12.78125-18.179687c-1.917969-2.726563-2.613281-6.160156-1.917969-9.417969.703126-3.257812 2.746094-6.101562 5.609376-7.804687l4.042968-2.398438h-9.882812c-4.597656 0-8.847656-2.679687-10.828125-6.828125l-20.117188-42.144531c-.859375-1.800781-.257812-3.957031 1.40625-5.058594 10.667969-7.054687 22.460938-11.585937 35.050781-13.472656l5.132813-.621094c2.058594-.246093 3.953125 1.105469 4.390625 3.125.171875.792969.464844 1.5625.871094 2.296875.097656.167969.179687.34375.246094.527344l36.539062 96.253906c.464844 1.230469.296875 2.609375-.449219 3.691406-.742187 1.085938-1.976562 1.734376-3.289062 1.734376zm-28.671875-8h22.875l-34.382813-90.582032c-.125-.238281-.246093-.476562-.359375-.714844l-1.828125.222657c-10.1875 1.523437-19.878906 5.011719-28.777343 10.363281l18.582031 38.933594c.660156 1.382812 2.078125 2.277344 3.609375 2.277344h17.167968c2.734376 0 5.0625 1.769531 5.785157 4.410156.726562 2.636718-.367188 5.351562-2.722657 6.746094l-10.304687 6.121093c-.96875.578125-1.632813 1.5-1.871094 2.601563-.234375 1.101562-.007812 2.214844.640625 3.140625zm0 0"/></g><path d="m115.601562 133.335938h-81.808593c-2.003907 0-3.625-1.625-3.625-3.628907v-30.101562c0-52.800781 42.804687-95.605469 95.605469-95.605469h40.03125c12.316406 0 22.300781 9.984375 22.300781 22.300781v34.527344c0 40.046875-32.460938 72.507813-72.503907 72.507813zm0 0" fill="#4671c6"/><path d="m248.628906 133.335938h46.511719c1.671875 0 3.027344-1.355469 3.027344-3.027344v-38.835938c0-48.308594-39.164063-87.46875-87.472657-87.46875h-.632812c-12.125 0-21.957031 9.828125-21.957031 21.953125v46.851563c0 33.429687 27.097656 60.527344 60.523437 60.527344zm0 0" fill="#4671c6"/><path d="m115.601562 137.335938h-81.8125c-4.203124 0-7.621093-3.421876-7.621093-7.628907v-30.101562c0-54.921875 44.679687-99.605469 99.605469-99.605469h40.03125c14.503906 0 26.300781 11.796875 26.300781 26.300781v34.527344c0 42.1875-34.320313 76.507813-76.503907 76.507813zm-81.433593-8h81.433593c37.773438 0 68.503907-30.730469 68.503907-68.503907v-34.53125c0-10.089843-8.210938-18.296875-18.300781-18.296875h-40.03125c-50.511719 0-91.605469 41.09375-91.605469 91.601563zm0 0" fill="#3762cc"/><path d="m295.140625 137.335938h-46.511719c-35.578125 0-64.523437-28.949219-64.523437-64.527344v-46.851563c0-14.3125 11.644531-25.957031 25.957031-25.957031h.632812c50.4375 0 91.472657 41.035156 91.472657 91.472656v38.835938c0 3.875-3.152344 7.027344-7.027344 7.027344zm-85.078125-129.332032c-9.902344 0-17.957031 8.054688-17.957031 17.957032v46.851562c0 31.164062 25.355469 56.523438 56.523437 56.523438h45.539063v-37.863282c0-46.023437-37.445313-83.46875-83.472657-83.46875zm0 0" fill="#3762cc"/><path d="m46.207031 161.460938h-10c-1.105469 0-2-.898438-2-2v-9.617188c0-1.105469.894531-2 2-2h10zm0 0" fill="#b9befc"/><path d="m292.1875 161.460938h-10v-13.617188h10c1.105469 0 2 .894531 2 2v9.617188c0 1.101562-.894531 2-2 2zm0 0" fill="#b9befc"/><path d="m282.15625 147.84375h-111.96875c-2.410156 0-4.542969 1.117188-6.007812 2.851562-1.464844-1.734374-3.601563-2.851562-6.011719-2.851562h-111.972657l-.027343 14.078125 12.285156 43.132813c2.496094 8.765624 10.316406 14.789062 19.195313 14.789062h71.019531c4.417969 0 8-3.6875 8-8.230469 0-1.421875 1.117187-2.574219 2.5-2.574219h10.019531c1.382812 0 2.5 1.152344 2.5 2.574219 0 4.542969 3.582031 8.230469 8 8.230469h71.023438c8.878906 0 16.695312-6.023438 19.191406-14.789062l12.285156-43.132813zm0 0" fill="#b9befc"/><path d="m250.710938 223.84375h-71.023438c-6.140625 0-11.21875-4.730469-11.917969-10.800781h-7.183593c-.695313 6.070312-5.773438 10.800781-11.917969 10.800781h-71.019531c-10.597657 0-20.074219-7.277344-23.042969-17.695312l-12.285157-43.132813c-.101562-.359375-.152343-.730469-.152343-1.105469l.03125-14.078125c.003906-2.207031 1.792969-3.992187 4-3.992187h111.96875c2.128906 0 4.199219.589844 6.007812 1.671875 1.8125-1.085938 3.882813-1.671875 6.011719-1.671875h111.96875c2.203125 0 3.996094 1.785156 4 3.992187l.03125 14.078125c0 .375-.050781.746094-.15625 1.105469l-12.285156 43.132813c-2.96875 10.417968-12.441406 17.695312-23.035156 17.695312zm-91.542969-18.800781h10.019531c3.585938 0 6.5 2.945312 6.5 6.570312 0 2.332031 1.796875 4.230469 4 4.230469h71.023438c7.039062 0 13.351562-4.886719 15.34375-11.882812l12.132812-42.59375-.019531-9.523438h-107.980469c-1.515625 0-2.503906.898438-2.957031 1.433594-1.519531 1.796875-4.585938 1.796875-6.109375 0-.453125-.535156-1.4375-1.433594-2.957032-1.433594h-107.976562l-.019531 9.519531 12.132812 42.59375c1.992188 7 8.300781 11.886719 15.34375 11.886719h71.019531c2.207032 0 4-1.898438 4-4.230469.003907-3.625 2.917969-6.570312 6.503907-6.570312zm0 0" fill="#3762cc"/><path d="m46.207031 165.460938h-10c-3.308593 0-6-2.691407-6-6v-9.617188c0-3.308594 2.691407-6 6-6h10c2.207031 0 4 1.789062 4 4v13.617188c0 2.207031-1.792969 4-4 4zm-8-8h4v-5.617188h-4zm0 0" fill="#3762cc"/><path d="m292.1875 165.460938h-10c-2.207031 0-4-1.792969-4-4v-13.617188c0-2.210938 1.792969-4 4-4h10c3.308594 0 6 2.691406 6 6v9.617188c0 3.308593-2.691406 6-6 6zm-6-8h4v-5.617188h-4zm0 0" fill="#3762cc"/><path d="m101.875 202.21875c-6.628906 0-12-5.371094-12-12v-20c0-6.628906 5.371094-12 12-12s12 5.371094 12 12v20c0 6.628906-5.375 12-12 12zm0 0" fill="#3762cc"/><path d="m226.460938 202.21875c-6.628907 0-12-5.371094-12-12v-20c0-6.628906 5.371093-12 12-12 6.625 0 12 5.371094 12 12v20c0 6.628906-5.375 12-12 12zm0 0" fill="#3762cc"/></svg>