<svg id="Capa_1" data-name="Capa 1" xmlns="http://www.w3.org/2000/svg" viewBox="0 0 369.61 306.76"><defs><style>.cls-1{fill:#fff;}</style></defs><title>mute</title><path class="cls-1" d="M231,40.68l-108.8,66.4L91.1,125a.35.35,0,0,1-.19.06H36.6A23.59,23.59,0,0,0,13,148.67v84.81c-.4,12.8,10.4,23.6,23.2,23.6H90.9a.35.35,0,0,1,.2.05L121,274.68c.4.4.8.4,1.2.8L229.8,341.07h0a17.86,17.86,0,0,0,7.74,3.27c13.28,2.33,24.25-7.44,24.25-20.92V58.68a19.38,19.38,0,0,0-2.8-10.4A20.44,20.44,0,0,0,231,40.68Z" transform="translate(-13 -37.94)"/><path class="cls-1" d="M348,191.08l31.6-31.6a10.47,10.47,0,1,0-14.8-14.8l-31.6,31.6-31.6-31.6a10.47,10.47,0,0,0-14.8,14.8l31.6,31.6-31.6,31.6a10.47,10.47,0,0,0,14.8,14.8l31.6-31.6,31.6,31.6a10.47,10.47,0,1,0,14.8-14.8Z" transform="translate(-13 -37.94)"/></svg>