<svg id="Capa_1" data-name="Capa 1" xmlns="http://www.w3.org/2000/svg" viewBox="0 0 599.69 600.06"><defs><style>.cls-1{fill:#fff;}</style></defs><title>nave-espacial</title><path class="cls-1" d="M494.29,504.5c4.9,0,12.2,13,17,21.52A170.94,170.94,0,0,0,521,541.86c11.38,15.84,28.1,24.21,48.34,24.21.64,0,1.28,0,1.91,0a10.71,10.71,0,0,0,5.79-19.53c-13.43-9.23-14.87-27.39-16.39-46.61-.5-6.27-1-12.76-2-18.82-5-30.73-16-69-56.82-92.21a108.3,108.3,0,0,0-55.76-15.36,105.35,105.35,0,0,0-52.8,14,10.72,10.72,0,0,0-3.9,3.9l-1.3,2.24c-.13.22-.24.44-.35.67-9.82,20.11-9,43.55-4.85,58.92,10,47.68,54.26,85,100.94,85h0a92.08,92.08,0,0,0,12.3-.83,10.71,10.71,0,0,0,.37-21.17c-3.44-.59-5.81-4-6.38-7.13-.24-1.31-.16-2.92.45-3.28A8.05,8.05,0,0,1,494.29,504.5Z" transform="translate(-0.19)"/><path class="cls-1" d="M89.89,310.57c18.63,45.42,52.65,94.19,95.79,137.33l7.57,7.57,59.85-59.85,6.9,6.89a47.5,47.5,0,0,0,33.81,14c.75,0,1.51,0,2.34-.05a4.55,4.55,0,0,1,2.1.59l7.67,11.64a16.76,16.76,0,0,0,13.93,7.7h0a16.84,16.84,0,0,0,11.94-5.07l99.66-99.66a16.52,16.52,0,0,0-2.62-25.86l-11.65-7.68a4.51,4.51,0,0,1-.59-2.17,47.94,47.94,0,0,0-13.94-36.08l-6.89-6.9,59.85-59.85L448,185.54C379.33,116.82,300.36,74.14,242,74.14c-14.09,0-26.55,2.54-37.17,7.56L192.33,69.25C168.55,45.47,92.32,0,44.12,0c-14,0-25,3.84-32.57,11.41C-9.29,32.26,2.4,74.35,15.87,106c14,33,36.54,69.21,53.52,86.19l12.46,12.46C69.61,230.66,72.35,267.81,89.89,310.57Zm171.63-114A56,56,0,1,1,221.91,213,55.66,55.66,0,0,1,261.52,196.6ZM164.63,106A56,56,0,1,1,125,122.42,55.66,55.66,0,0,1,164.63,106ZM63.1,109.83A34.89,34.89,0,1,1,87.76,120,34.65,34.65,0,0,1,63.1,109.83Z" transform="translate(-0.19)"/><path class="cls-1" d="M556.08,389.15c-23.91-35.89-65.39-46.32-106.32-46.28-13.81,0-13.81,21.43,0,21.42,39.18,0,74.17,10.1,94.08,45.95,20.13,36.25,18.93,79.83,36.41,117,5.88,12.5,24.34,1.62,18.5-10.81C579.47,475.45,582,428,556.08,389.15Z" transform="translate(-0.19)"/><path class="cls-1" d="M572.16,578.49c-22.61,1.26-45.8-5.93-59.09-25.3-7.76-11.31-26.33-.61-18.49,10.81,17.54,25.56,47,37.61,77.58,35.9C585.89,599.14,586,577.72,572.16,578.49Z" transform="translate(-0.19)"/></svg>