<svg id="Layer_1" data-name="Layer 1" xmlns="http://www.w3.org/2000/svg" viewBox="0 0 470.42 493.8"><defs><style>.cls-1{fill:#fff;}</style></defs><title>next</title><path class="cls-1" d="M355.94,201,81.41,12.13C70.13,4.35,58.4.25,48.36.25c-22,0-36.67,18.49-36.67,48.26v397c0,14.54,4.22,26.69,10.49,35.15S38.5,493.8,49.26,493.8c10,0,21.31-4.12,32.58-11.88L356.12,293.09c17.63-12.15,27.3-28.51,27.29-46.07S373.59,213.1,355.94,201Z" transform="translate(-11.69)"/><path d="M456.45,493.67h0Z" transform="translate(-11.69)"/><path class="cls-1" d="M455.64,0,444.29,0c-14.86,0-27.72,12.11-27.72,27V466.39c0,14.9,12.65,27.13,27.53,27.13l12,.15c14.81-.08,26-12.41,26-27.25V27C482.11,12.12,470.51,0,455.64,0Z" transform="translate(-11.69)"/></svg>