<svg height="486pt" viewBox="-91 0 486 486.54" width="486pt" xmlns="http://www.w3.org/2000/svg"><path d="m304.53125 98.699219v175.75l-33.632812-18.300781c-30.410157-16.546876-67.679688-13.839844-95.378907 6.929687s-64.96875 23.476563-95.378906 6.933594l-33.621094-18.300781h-.550781v-175.75h.550781l33.621094 18.300781c30.414063 16.546875 67.6875 13.839843 95.390625-6.933594 27.699219-20.765625 64.96875-23.472656 95.378906-6.929687zm-53.992188 91.320312c1-6.339843-9.140624-13.769531-25.988281-20.390625h-.011719c-2.480468-21.988281-19.050781-39.773437-40.8125-43.800781-21.761718-4.027344-43.597656 6.644531-53.785156 26.292969-26.082031-.421875-44.429687 3.769531-45.679687 11.707031-1.292969 8.183594 15.910156 18.160156 42.148437 25.882813 5.695313 18.988281 22.015625 32.859374 41.675782 35.417968 19.660156 2.558594 38.988281-6.671875 49.355468-23.570312 19.25-.9375 32.070313-4.949219 33.097656-11.539063zm0 0" fill="#00efd1"/><path d="m224.550781 169.628906c16.847657 6.621094 26.988281 14.050782 25.988281 20.390625-1.027343 6.589844-13.847656 10.601563-33.097656 11.539063 5.863282-9.550782 8.363282-20.792969 7.097656-31.929688zm0 0" fill="#00efd1"/><path d="m224.539062 169.628906c1.265626 11.136719-1.234374 22.378906-7.097656 31.929688-14.800781.710937-33.402344-.386719-53.363281-3.527344-12.71875-1.96875-25.300781-4.746094-37.667969-8.320312-5.464844-18.238282-.160156-37.996094 13.699219-51.046876 13.863281-13.046874 33.90625-17.148437 51.78125-10.59375 17.871094 6.554688 30.511719 22.640626 32.648437 41.558594zm0 0" fill="#fedb41"/><path d="m217.441406 201.558594c-10.367187 16.898437-29.695312 26.128906-49.355468 23.570312-19.660157-2.558594-35.980469-16.429687-41.675782-35.417968 12.367188 3.574218 24.949219 6.351562 37.667969 8.320312 19.960937 3.140625 38.5625 4.238281 53.363281 3.527344zm0 0" fill="#fedb41"/><path d="m84.261719 163.828125c1.25-7.9375 19.597656-12.128906 45.679687-11.707031-6.007812 11.597656-7.273437 25.074218-3.53125 37.589844-26.238281-7.722657-43.441406-17.699219-42.148437-25.882813zm0 0" fill="#00efd1"/><path d="m29.96875 0c16.402344 0 29.703125 13.296875 29.703125 29.699219 0 16.402343-13.300781 29.699219-29.703125 29.699219s-29.699219-13.296876-29.699219-29.699219c0-16.402344 13.296875-29.699219 29.699219-29.699219zm0 0" fill="#fedb41"/><g fill="#00acea"><path d="m45.96875 251.710938v234.828124h-32.007812v-431.597656l.109374-.160156c9.699219 6.160156 22.089844 6.160156 31.789063 0l.109375.160156zm0 0"/><path d="m208.292969 209.769531c-15.226563-.113281-30.425781-1.394531-45.457031-3.835937-13.0625-2.015625-25.984376-4.871094-38.683594-8.550782-23.230469-6.832031-50.378906-18.417968-47.796875-34.796874 2.011719-12.792969 20.097656-19 53.710937-18.464844l-.257812 16c-23.492188-.382813-33.9375 3.082031-37.054688 5.054687 2.445313 2.949219 11.835938 9.777344 35.910156 16.859375 12.035157 3.472656 24.277344 6.175782 36.65625 8.09375 18.601563 2.925782 36.980469 4.148438 51.730469 3.441406 15.386719-.75 22.507813-3.332031 24.976563-4.882812-1.78125-2.117188-7.308594-6.464844-20.402344-11.609375l5.851562-14.890625c22.527344 8.847656 32.65625 18.363281 30.964844 29.082031-1.722656 11.046875-15.007812 17.03125-40.609375 18.285157-3.078125.144531-6.257812.214843-9.539062.214843zm0 0"/></g></svg>