<svg id="Capa_1" enable-background="new 0 0 512 512" height="512" viewBox="0 0 512 512" width="512" xmlns="http://www.w3.org/2000/svg"><g><path d="m191.533 136.102-9.218 57.723c-1.93 12.084 10.714 21.308 21.639 15.722l52.047-26.604 52.047 26.604c10.823 5.531 23.586-3.531 21.639-15.722l-9.218-57.723 41.384-41.28c8.699-8.677 3.811-23.543-8.265-25.439l-57.744-9.071-26.47-52.117c-5.541-10.91-21.189-10.943-26.748 0l-26.47 52.117-57.744 9.071c-12.087 1.898-16.954 16.772-8.265 25.439zm36.854-47.342c4.757-.747 8.866-3.733 11.046-8.026l16.568-32.622 16.568 32.622c2.181 4.293 6.289 7.278 11.046 8.026l36.143 5.677-25.903 25.839c-3.409 3.4-4.979 8.231-4.22 12.986l5.77 36.132-32.578-16.653c-4.287-2.191-9.366-2.192-13.653 0l-32.578 16.653 5.77-36.132c.759-4.755-.811-9.585-4.22-12.986l-25.903-25.839z"/><path d="m499.324 225.656-40.113-6.301-18.388-36.205c-5.541-10.91-21.189-10.943-26.747 0l-18.388 36.205-40.113 6.301c-12.088 1.898-16.954 16.772-8.265 25.439l28.749 28.677-6.404 40.099c-1.93 12.086 10.713 21.305 21.639 15.722l36.156-18.482 36.156 18.482c10.849 5.543 23.58-3.57 21.639-15.722l-6.404-40.099 28.749-28.677c8.664-8.643 3.857-23.535-8.266-25.439zm-47.098 38.29c-3.409 3.4-4.979 8.231-4.22 12.986l2.956 18.506c-15.286-7.345-17.585-10.173-23.513-10.173-5.927 0-8.221 2.825-23.513 10.173l2.956-18.506c.759-4.755-.811-9.585-4.22-12.986l-13.268-13.235 18.513-2.908c4.757-.747 8.866-3.733 11.046-8.026l8.486-16.709 8.486 16.709c2.181 4.293 6.289 7.279 11.046 8.026l18.513 2.908z"/><path d="m156.429 225.656-40.113-6.301-18.389-36.205c-5.541-10.91-21.189-10.943-26.747 0l-18.388 36.205-40.113 6.301c-12.088 1.898-16.954 16.772-8.265 25.439l28.749 28.677-6.404 40.099c-1.93 12.084 10.711 21.306 21.639 15.722l36.156-18.482 36.156 18.482c10.849 5.543 23.58-3.57 21.639-15.722l-6.404-40.099 28.749-28.677c8.664-8.643 3.857-23.535-8.265-25.439zm-47.098 38.29c-3.409 3.4-4.979 8.231-4.22 12.986l2.956 18.506-16.686-8.53c-4.288-2.191-9.366-2.192-13.654 0l-16.686 8.53 2.956-18.506c.759-4.755-.811-9.585-4.22-12.986l-13.268-13.235 18.513-2.908c4.757-.747 8.866-3.733 11.046-8.026l8.486-16.709 8.486 16.709c2.181 4.293 6.289 7.279 11.046 8.026l18.513 2.908z"/><path d="m256.001 241.993c-41.354 0-74.998 33.645-74.998 75.002v60.001c0 36.221 25.808 66.524 59.999 73.493v46.511c0 8.284 6.716 15 15 15s15-6.716 15-15v-46.51c34.19-6.969 59.998-37.273 59.998-73.493v-60.001c0-41.357-33.644-75.003-74.999-75.003zm-42.419 150.004h17.419c8.284 0 15-6.716 15-15s-6.716-15-15-15h-20v-30.001h20c8.284 0 15-6.716 15-15s-6.716-15-15-15h-17.419c14.148-39.894 70.682-39.916 84.838 0h-17.419c-8.284 0-15 6.716-15 15s6.716 15 15 15h20v30.001h-20c-8.284 0-15 6.716-15 15s6.716 15 15 15h17.419c-14.148 39.894-70.681 39.916-84.838 0z"/></g></svg>