<svg id="Capa_1" data-name="Capa 1" xmlns="http://www.w3.org/2000/svg" viewBox="0 0 512 512"><defs><style>.cls-1{fill:#fffdfd;}</style></defs><title>ptlogo2</title><path class="cls-1" d="M330.56,143.41a15,15,0,0,0,17-24.7l-.18-.12-.27-.18C282.08,75.19,194.68,84,139.33,139.33c-64.34,64.33-64.34,169,0,233.35s169,64.33,233.35,0c55.32-55.35,64.11-142.75,20.9-207.82a15,15,0,1,0-25.18,16.31h0l.18.27c35.35,53.23,28.14,124.75-17.12,170-52.65,52.65-138.29,52.65-190.93,0s-52.63-138.28,0-190.92c45.26-45.27,116.79-52.49,170-17.13ZM256,0C115.39,0,0,115.39,0,256c0,57.25,19.53,111.34,54.6,156.43A15,15,0,1,0,78.43,394.2h0l-.16-.2A222.86,222.86,0,0,1,31,256C31,131.93,131.93,31,256,31S481,131.93,481,256,380.07,481,256,481a222.7,222.7,0,0,1-138-47.29,15,15,0,1,0-18.43,23.68h0C144.66,492.45,198.74,512,256,512c140.61,0,256-115.39,256-256S396.61,0,256,0Z"/><path class="cls-1" d="M256,181a75,75,0,1,0,75,75A75,75,0,0,0,256,181Zm137.89-62.89a45,45,0,1,0,0,63.64,45,45,0,0,0,0-63.64ZM54.48,393.89a45,45,0,1,0,63.64,0h0a45,45,0,0,0-63.64,0Z"/></svg>