<svg id="Camada_1" data-name="Camada 1" xmlns="http://www.w3.org/2000/svg" viewBox="0 0 512 501.37"><defs><style>.cls-1{fill:#333;}</style></defs><title>reading</title><g id="Layer_3" data-name="Layer 3"><path class="cls-1" d="M504,272a8,8,0,0,0,8-8V232a8,8,0,0,0-8-8H389.23a84.08,84.08,0,0,0,33.9-56H440V152H423.9a84,84,0,0,0-167.8,0H231.9a84,84,0,0,0-167.8,0H48v16H64.87a84.08,84.08,0,0,0,33.9,56H62.58A62.65,62.65,0,0,0,0,286.58v26.84A62.46,62.46,0,0,0,20.84,360H8a8,8,0,0,0-8,8v32a8,8,0,0,0,8,8H32v56H8a8,8,0,0,0-8,8v32a8,8,0,0,0,8,8H449.42A62.65,62.65,0,0,0,512,449.42V422.58A62.46,62.46,0,0,0,491.16,376H504a8,8,0,0,0,8-8V336a8,8,0,0,0-8-8H480V272Zm-40,56H70a22,22,0,0,1-22-22V294.57C48,282.33,58.08,272,70,272H464ZM48,440H248V424H48V408H442a22,22,0,0,1,22,22v11.43a22,22,0,0,1-22,22H48ZM340,88a68,68,0,1,1-68,68A68,68,0,0,1,340,88Zm-83.13,80a84.08,84.08,0,0,0,33.9,56H197.23a84.08,84.08,0,0,0,33.9-56ZM80,156a68,68,0,1,1,68,68A68,68,0,0,1,80,156Z" transform="translate(0 -10.63)"/><path class="cls-1" d="M184,296H392v16H184Z" transform="translate(0 -10.63)"/><path class="cls-1" d="M148,120V104a52,52,0,0,0-52,52h16A36,36,0,0,1,148,120Z" transform="translate(0 -10.63)"/><path class="cls-1" d="M340,120V104a52,52,0,0,0-52,52h16A36,36,0,0,1,340,120Z" transform="translate(0 -10.63)"/><path class="cls-1" d="M464,104a32,32,0,1,0-32-32A32,32,0,0,0,464,104Z" transform="translate(0 -10.63)"/><path class="cls-1" d="M4.16,64.33l23,12.56,12.56,23a8,8,0,0,0,14,0l12.56-23L89.21,64.33a8,8,0,0,0,0-14L66.26,37.74l-12.56-23a8,8,0,0,0-14,0l-12.56,23L4.16,50.29a8,8,0,0,0,0,14Z" transform="translate(0 -10.63)"/><path class="cls-1" d="M224,64h16V80H224Z" transform="translate(0 -10.63)"/><path class="cls-1" d="M296,32h16V48H296Z" transform="translate(0 -10.63)"/></g></svg>