<svg id="Capa_1" data-name="Capa 1" xmlns="http://www.w3.org/2000/svg" viewBox="0 0 348.5 305.17"><defs><style>.cls-1{fill:#fff;}</style></defs><title>som</title><path class="cls-1" d="M278.43,125.29c-.41-.49-.84-1-1.27-1.39-3.27-3.27-6.35-4-8.36-4a9.19,9.19,0,0,0-6.56,2.81l-6.58,6.59c-2.06,2-6.16,7.59.13,14.59l.27.31a51.64,51.64,0,0,1-.38,66.24l-.16.18c-6.06,7.05-1.57,12.56-.05,14.09l6.92,6.91a9.73,9.73,0,0,0,6.95,3.19h.34c3.9-.16,6.22-2.9,7.17-4l.23-.28a81.18,81.18,0,0,0,1.35-105.26Z" transform="translate(0 -21.66)"/><path class="cls-1" d="M316.75,93.14l-.45-.52c-.47-.54-1.05-1.22-1.74-1.91-2.49-2.49-5.11-3.75-7.79-3.75a8.59,8.59,0,0,0-6.19,2.69l-7.3,7.3c-4.3,4.3-3.65,9.71,1.9,16l.35.4a98.18,98.18,0,0,1-1.7,129.85c-6.66,7.34-2.32,12.76-.83,14.25l7.71,7.71a8.51,8.51,0,0,0,6.11,2.63H307c4.12-.08,6.91-3.1,7.82-4.09a127.6,127.6,0,0,0,1.94-170.61Z" transform="translate(0 -21.66)"/><path class="cls-1" d="M202.69,24.36a22.47,22.47,0,0,0-22.34.56L65.2,98.64H28.82C12.93,98.64,0,112,0,127.93v92.55c0,15.89,12.93,29.16,28.82,29.16H65.2l115.19,73.79a21.91,21.91,0,0,0,11.9,3.4,21.53,21.53,0,0,0,10.4-2.73A21.92,21.92,0,0,0,214,304.74V43.67A21.85,21.85,0,0,0,202.69,24.36Z" transform="translate(0 -21.66)"/></svg>